<svg fill="none" xmlns="http://www.w3.org/2000/svg" viewBox="0 0 40 40"><path d="M16.67 31.67v-8.34h6.66v8.34c0 .91.75 1.66 1.67 1.66h5c.92 0 1.67-.75 1.67-1.66V20h2.83c.77 0 1.13-.95.55-1.45L21.12 6a1.68 1.68 0 00-2.24 0L4.95 18.55A.83.83 0 005.5 20h2.83v11.67c0 .91.75 1.66 1.67 1.66h5c.92 0 1.67-.75 1.67-1.66z" fill="url(#paint0_linear)"/><defs><linearGradient id="paint0_linear" x1="4.67" y1="19.45" x2="35.34" y2="19.45" gradientUnits="userSpaceOnUse"><stop stop-color="#D00000"/><stop offset="1" stop-color="#DC2F02"/></linearGradient></defs></svg>