<svg fill="none" xmlns="http://www.w3.org/2000/svg" viewBox="0 0 40 40"><path d="M25.833 23.333h-1.316l-.467-.45c2-2.333 3.033-5.516 2.467-8.9-.784-4.633-4.65-8.333-9.317-8.9C10.15 4.217 4.217 10.15 5.083 17.2c.567 4.667 4.267 8.533 8.9 9.317a10.834 10.834 0 008.9-2.467l.45.467v1.316l7.084 7.084a1.76 1.76 0 002.483 0 1.76 1.76 0 000-2.484l-7.067-7.1zm-10 0a7.49 7.49 0 01-7.5-7.5c0-4.15 3.35-7.5 7.5-7.5s7.5 3.35 7.5 7.5-3.35 7.5-7.5 7.5z" fill="url(#paint0_linear)"/><defs><linearGradient id="paint0_linear" x1="4.999" y1="19.214" x2="33.413" y2="19.214" gradientUnits="userSpaceOnUse"><stop stop-color="#D00000"/><stop offset="1" stop-color="#DC2F02"/></linearGradient></defs></svg>