<svg version="1.0" xmlns="http://www.w3.org/2000/svg" viewBox="0 0 295 295">
    <path d="M126.5 10.7a23 23 0 00-6.5 2.8c-.8.8-1.8 1.3-2.3 1.2a39.1 39.1 0 00-16.2 24.8c-.1.5-.3 4.8-.3 9.5l-.2 8.5-13.7.2c-11.8.1-13.9.4-15 1.9-.7 1-1.3 1.4-1.3.9 0-2.9-3.1 4.2-3.5 7.7a1520 1520 0 01-3 32.9c-.2 3.5-.6 9.1-1 12.4a1700.4 1700.4 0 00-4 43.5l-.9 10.5a676.3 676.3 0 00-2.6 28l-.5 5.5a407.4 407.4 0 01-2 23l-1 11-1.1 12.5-1 12c-1.9 18-1.3 21 4.3 23.1 3.2 1.2 181.7 1.3 184.4.1.8-.4 2.3-2.1 3.3-3.8 1.9-3.3 1.8-9-1-34.9a612.6 612.6 0 01-1.8-22.9l-.7-8.3 2.9 2.3c1.6 1.3 2.8 2.6 2.6 2.8-.1.2.6 1.3 1.8 2.5 1.1 1.1 3.1 3.6 4.5 5.3 2.8 3.6 2.9 3.6 9.4-1.9l6.9-5.7c1.5-1.3 2.1-2.4 1.5-2.8-.6-.5-3.9-4.2-7.5-8.3l-9.2-10.4c-2.5-2.8-2.6-3-1-5.2 1-1.3 2.1-2.4 2.5-2.4.5 0 4-2.8 7.8-6.3l7-6.2-6.3-2.1a96 96 0 01-7.8-2.7l-8-2.7a161.4 161.4 0 01-10.4-3.4c-.5-.1-1-1-1.2-2.1-.5-3.3-1.4-12.5-1.9-20.5-.3-4.1-.7-9.1-1-11-.6-4.2-1.3-12.3-2-20.5l-2-23.5-1-11c-.8-10.2-1.5-13.3-3.5-15.8-2.4-3-4.8-3.4-20-3.6l-12.5-.2-.2-7.9a103.9 103.9 0 00-1.2-14.7c.4-.5-4-8.3-6.5-11.7a41.1 41.1 0 00-16.9-12.2 147 147 0 00-39.2-.2zm2 10c-1.4 1.6-4 5.7-5.6 9.2-3.1 6.3-3.2 6.9-3.8 25.7-.1 1.8-.7 2-4.3 1.8l-5.2-.3a30 30 0 01-.4-9.9c.6-11.6 2.7-17.1 8.9-22.6 6.5-5.9 15.4-9.2 10.4-3.9zm38.1-.7c10 4.6 15.4 14 15.6 27.4.1 4.7-.2 8.9-.6 9.3-.4.4-2.8.8-5.2.8H172l-.1-8.2-.3-10.1a31.1 31.1 0 00-4.1-11.6c-.8-.8-1.5-1.8-1.5-2.3 0-.4-1.4-2.3-3.1-4.1-3.5-3.7-2.6-4 3.7-1.2zm-15.7 1.2c6.3 3.9 11 10.4 12.6 17.7.8 3.8 1 16.5.2 17.8-.4.6-31.8 1-36.1.4-.4 0-.6-4.5-.4-10 .6-13.1 3.9-19.8 12.8-25.7 4.4-2.9 6.4-2.9 10.9-.2z"/>
</svg>